<mxfile host="app.diagrams.net" modified="2020-09-14T13:33:35.402Z" agent="5.0 (Macintosh; Intel Mac OS X 10_15_6) AppleWebKit/537.36 (KHTML, like Gecko) Chrome/85.0.4183.102 Safari/537.36" etag="UNuH3FS6zizLfwejBhVa" version="13.6.10" type="github">
  <diagram name="Page-1" id="d9b1e647-80fa-b4a2-5024-87a742678bcc">
    <mxGraphModel dx="1298" dy="763" grid="1" gridSize="10" guides="1" tooltips="1" connect="1" arrows="1" fold="1" page="1" pageScale="1" pageWidth="1100" pageHeight="850" background="#ffffff" math="0" shadow="0">
      <root>
        <mxCell id="0" />
        <mxCell id="1" parent="0" />
        <mxCell id="57fe6abec08f04cb-1" value="&lt;font style=&quot;font-size: 18px&quot;&gt;开发&lt;/font&gt;" style="shape=step;whiteSpace=wrap;html=1;fontSize=28;fillColor=#0080FF;fontColor=#FFFFFF;strokeColor=none;" parent="1" vertex="1">
          <mxGeometry x="80" y="180" width="170" height="80" as="geometry" />
        </mxCell>
        <mxCell id="57fe6abec08f04cb-2" value="&lt;font style=&quot;font-size: 18px&quot;&gt;单测&lt;/font&gt;" style="shape=step;whiteSpace=wrap;html=1;fontSize=28;fillColor=#0075E8;fontColor=#FFFFFF;strokeColor=none;" parent="1" vertex="1">
          <mxGeometry x="380" y="180" width="170" height="80" as="geometry" />
        </mxCell>
        <mxCell id="57fe6abec08f04cb-3" value="&lt;font style=&quot;font-size: 18px&quot;&gt;接口测试&lt;/font&gt;" style="shape=step;whiteSpace=wrap;html=1;fontSize=28;fillColor=#0067CC;fontColor=#FFFFFF;strokeColor=none;" parent="1" vertex="1">
          <mxGeometry x="530" y="180" width="180" height="80" as="geometry" />
        </mxCell>
        <mxCell id="57fe6abec08f04cb-4" value="&lt;font style=&quot;font-size: 18px&quot;&gt;部署&lt;/font&gt;" style="shape=step;whiteSpace=wrap;html=1;fontSize=28;fillColor=#0062C4;fontColor=#FFFFFF;strokeColor=none;" parent="1" vertex="1">
          <mxGeometry x="690" y="180" width="170" height="80" as="geometry" />
        </mxCell>
        <mxCell id="57fe6abec08f04cb-5" value="&lt;font style=&quot;font-size: 18px&quot;&gt;压力测试&lt;/font&gt;" style="shape=step;whiteSpace=wrap;html=1;fontSize=28;fillColor=#0059B0;fontColor=#FFFFFF;strokeColor=none;" parent="1" vertex="1">
          <mxGeometry x="850" y="80" width="170" height="80" as="geometry" />
        </mxCell>
        <mxCell id="57fe6abec08f04cb-6" value="&lt;font style=&quot;font-size: 18px&quot;&gt;混沌工程&lt;/font&gt;" style="shape=step;whiteSpace=wrap;html=1;fontSize=28;fillColor=#004D99;fontColor=#FFFFFF;strokeColor=none;" parent="1" vertex="1">
          <mxGeometry x="850" y="180" width="170" height="80" as="geometry" />
        </mxCell>
        <mxCell id="57fe6abec08f04cb-9" value="&lt;font style=&quot;font-size: 24px&quot;&gt;codecc&lt;/font&gt;" style="text;spacingTop=-5;fillColor=#ffffff;whiteSpace=wrap;html=1;align=left;fontSize=12;fontFamily=Helvetica;fillColor=none;strokeColor=none;" parent="1" vertex="1">
          <mxGeometry x="270" y="279" width="110" height="50" as="geometry" />
        </mxCell>
        <mxCell id="JvaUS5SfMfMZ3ywEdT9t-1" value="&lt;font style=&quot;font-size: 18px&quot;&gt;流量回放&lt;/font&gt;" style="shape=step;whiteSpace=wrap;html=1;fontSize=28;fillColor=#004D99;fontColor=#FFFFFF;strokeColor=none;" vertex="1" parent="1">
          <mxGeometry x="850" y="280" width="170" height="80" as="geometry" />
        </mxCell>
        <mxCell id="JvaUS5SfMfMZ3ywEdT9t-2" value="&lt;font style=&quot;font-size: 18px&quot;&gt;代码扫描&lt;/font&gt;" style="shape=step;whiteSpace=wrap;html=1;fontSize=28;fillColor=#0080FF;fontColor=#FFFFFF;strokeColor=none;" vertex="1" parent="1">
          <mxGeometry x="230" y="180" width="170" height="80" as="geometry" />
        </mxCell>
        <mxCell id="JvaUS5SfMfMZ3ywEdT9t-4" value="&lt;font style=&quot;font-size: 24px&quot;&gt;server端&lt;/font&gt;" style="rounded=0;whiteSpace=wrap;html=1;" vertex="1" parent="1">
          <mxGeometry x="90" y="30" width="120" height="60" as="geometry" />
        </mxCell>
        <mxCell id="JvaUS5SfMfMZ3ywEdT9t-5" value="&lt;font style=&quot;font-size: 24px&quot;&gt;gomock&lt;br&gt;gomonkey&lt;br&gt;goconvey&lt;br&gt;&lt;/font&gt;" style="text;spacingTop=-5;fillColor=#ffffff;whiteSpace=wrap;html=1;align=left;fontSize=12;fontFamily=Helvetica;fillColor=none;strokeColor=none;" vertex="1" parent="1">
          <mxGeometry x="400" y="280" width="140" height="140" as="geometry" />
        </mxCell>
        <mxCell id="JvaUS5SfMfMZ3ywEdT9t-6" value="&lt;span style=&quot;font-size: 24px&quot;&gt;星海&lt;/span&gt;" style="text;spacingTop=-5;fillColor=#ffffff;whiteSpace=wrap;html=1;align=left;fontSize=12;fontFamily=Helvetica;fillColor=none;strokeColor=none;" vertex="1" parent="1">
          <mxGeometry x="560" y="279" width="110" height="50" as="geometry" />
        </mxCell>
        <mxCell id="JvaUS5SfMfMZ3ywEdT9t-7" value="&lt;span style=&quot;font-size: 24px&quot;&gt;123平台&lt;/span&gt;" style="text;spacingTop=-5;fillColor=#ffffff;whiteSpace=wrap;html=1;align=left;fontSize=12;fontFamily=Helvetica;fillColor=none;strokeColor=none;" vertex="1" parent="1">
          <mxGeometry x="710" y="279" width="110" height="50" as="geometry" />
        </mxCell>
        <mxCell id="JvaUS5SfMfMZ3ywEdT9t-44" value="&lt;font style=&quot;font-size: 18px&quot;&gt;开发&lt;/font&gt;" style="shape=step;whiteSpace=wrap;html=1;fontSize=28;fillColor=#0080FF;fontColor=#FFFFFF;strokeColor=none;" vertex="1" parent="1">
          <mxGeometry x="83" y="545" width="170" height="80" as="geometry" />
        </mxCell>
        <mxCell id="JvaUS5SfMfMZ3ywEdT9t-47" value="&lt;font style=&quot;font-size: 18px&quot;&gt;部署&lt;/font&gt;" style="shape=step;whiteSpace=wrap;html=1;fontSize=28;fillColor=#0062C4;fontColor=#FFFFFF;strokeColor=none;" vertex="1" parent="1">
          <mxGeometry x="790" y="545" width="170" height="80" as="geometry" />
        </mxCell>
        <mxCell id="JvaUS5SfMfMZ3ywEdT9t-50" value="&lt;font style=&quot;font-size: 24px&quot;&gt;codecc&lt;/font&gt;" style="text;spacingTop=-5;fillColor=#ffffff;whiteSpace=wrap;html=1;align=left;fontSize=12;fontFamily=Helvetica;fillColor=none;strokeColor=none;" vertex="1" parent="1">
          <mxGeometry x="263" y="644" width="110" height="50" as="geometry" />
        </mxCell>
        <mxCell id="JvaUS5SfMfMZ3ywEdT9t-52" value="&lt;font style=&quot;font-size: 18px&quot;&gt;代码扫描&lt;/font&gt;" style="shape=step;whiteSpace=wrap;html=1;fontSize=28;fillColor=#0080FF;fontColor=#FFFFFF;strokeColor=none;" vertex="1" parent="1">
          <mxGeometry x="233" y="545" width="170" height="80" as="geometry" />
        </mxCell>
        <mxCell id="JvaUS5SfMfMZ3ywEdT9t-53" value="&lt;font style=&quot;font-size: 24px&quot;&gt;web端&lt;/font&gt;" style="rounded=0;whiteSpace=wrap;html=1;" vertex="1" parent="1">
          <mxGeometry x="93" y="395" width="120" height="60" as="geometry" />
        </mxCell>
        <mxCell id="JvaUS5SfMfMZ3ywEdT9t-54" value="&lt;font style=&quot;font-size: 24px&quot;&gt;&lt;br&gt;&lt;/font&gt;" style="text;spacingTop=-5;fillColor=#ffffff;whiteSpace=wrap;html=1;align=left;fontSize=12;fontFamily=Helvetica;fillColor=none;strokeColor=none;" vertex="1" parent="1">
          <mxGeometry x="410" y="644" width="140" height="140" as="geometry" />
        </mxCell>
        <mxCell id="JvaUS5SfMfMZ3ywEdT9t-56" value="&lt;span style=&quot;font-size: 24px&quot;&gt;123平台&lt;/span&gt;" style="text;spacingTop=-5;fillColor=#ffffff;whiteSpace=wrap;html=1;align=left;fontSize=12;fontFamily=Helvetica;fillColor=none;strokeColor=none;" vertex="1" parent="1">
          <mxGeometry x="820" y="644" width="110" height="50" as="geometry" />
        </mxCell>
        <mxCell id="JvaUS5SfMfMZ3ywEdT9t-57" value="" style="rounded=0;whiteSpace=wrap;html=1;" vertex="1" parent="1">
          <mxGeometry x="410" y="510" width="370" height="170" as="geometry" />
        </mxCell>
        <mxCell id="JvaUS5SfMfMZ3ywEdT9t-45" value="&lt;font style=&quot;font-size: 18px&quot;&gt;单测&lt;/font&gt;" style="shape=step;whiteSpace=wrap;html=1;fontSize=28;fillColor=#0075E8;fontColor=#FFFFFF;strokeColor=none;" vertex="1" parent="1">
          <mxGeometry x="430" y="545" width="170" height="80" as="geometry" />
        </mxCell>
        <mxCell id="JvaUS5SfMfMZ3ywEdT9t-46" value="&lt;font style=&quot;font-size: 18px&quot;&gt;端对端测试&lt;/font&gt;" style="shape=step;whiteSpace=wrap;html=1;fontSize=28;fillColor=#0067CC;fontColor=#FFFFFF;strokeColor=none;" vertex="1" parent="1">
          <mxGeometry x="580" y="545" width="180" height="80" as="geometry" />
        </mxCell>
        <mxCell id="JvaUS5SfMfMZ3ywEdT9t-58" value="&lt;span style=&quot;font-size: 24px&quot;&gt;dwt&lt;/span&gt;" style="text;spacingTop=-5;fillColor=#ffffff;whiteSpace=wrap;html=1;align=left;fontSize=12;fontFamily=Helvetica;fillColor=none;strokeColor=none;" vertex="1" parent="1">
          <mxGeometry x="565" y="645" width="110" height="50" as="geometry" />
        </mxCell>
        <mxCell id="JvaUS5SfMfMZ3ywEdT9t-59" value="&lt;span style=&quot;font-size: 24px&quot;&gt;接入&lt;br&gt;啄木鸟&lt;br&gt;007监控&lt;br&gt;&lt;/span&gt;" style="text;spacingTop=-5;fillColor=#ffffff;whiteSpace=wrap;html=1;align=left;fontSize=12;fontFamily=Helvetica;fillColor=none;strokeColor=none;" vertex="1" parent="1">
          <mxGeometry x="90" y="644" width="140" height="86" as="geometry" />
        </mxCell>
        <mxCell id="JvaUS5SfMfMZ3ywEdT9t-60" value="&lt;font style=&quot;font-size: 18px&quot;&gt;啄木鸟&lt;/font&gt;" style="shape=step;whiteSpace=wrap;html=1;fontSize=28;fillColor=#0062C4;fontColor=#FFFFFF;strokeColor=none;" vertex="1" parent="1">
          <mxGeometry x="970" y="500" width="170" height="80" as="geometry" />
        </mxCell>
        <mxCell id="JvaUS5SfMfMZ3ywEdT9t-61" value="&lt;font style=&quot;font-size: 18px&quot;&gt;007监控&lt;/font&gt;" style="shape=step;whiteSpace=wrap;html=1;fontSize=28;fillColor=#0062C4;fontColor=#FFFFFF;strokeColor=none;" vertex="1" parent="1">
          <mxGeometry x="970" y="590" width="170" height="80" as="geometry" />
        </mxCell>
      </root>
    </mxGraphModel>
  </diagram>
</mxfile>
